<svg id="Ebene_1" data-name="Ebene 1" xmlns="http://www.w3.org/2000/svg" viewBox="0 0 3520.28 402.85"><title>Eldar.Store</title><path d="M316,1174.55a45.18,45.18,0,0,0,7.41-.61Z" transform="translate(-269.29 -819.57)" style="fill:#5f3cd7"/><path d="M859.29,1039h-590v45.08H316l3.86.32H859.29a45.08,45.08,0,1,1,0,90.15h-590v45.08h590a90.32,90.32,0,1,0,0-180.63Z" transform="translate(-269.29 -819.57)" style="fill:#5f3cd7"/><path d="M359.53,956.39a45.08,45.08,0,0,1,0-90.16H904.29a45.15,45.15,0,0,0-7.49.63l7.65-.63h45.08V821H359.69a90.32,90.32,0,0,0-.16,180.63h590V956.39H904.45l-7.69-.64a45.54,45.54,0,0,0,7.53.64Z" transform="translate(-269.29 -819.57)" style="fill:#7058da"/><g style="isolation:isolate"><path d="M1120.5,1183.05v-148h133.44V999.26H1120.5V857.58h227.25V821.16H1098.24A19.84,19.84,0,0,0,1078.4,841v358.62a19.84,19.84,0,0,0,19.84,19.84h249.51v-36.41Z" transform="translate(-269.29 -819.57)" style="fill:#5f3cd7"/><path d="M1405.63,840.89v378.68H1446V840.89a19.85,19.85,0,0,0-19.85-19.84h-.71A19.84,19.84,0,0,0,1405.63,840.89Z" transform="translate(-269.29 -819.57)" style="fill:#5f3cd7"/><path d="M1763.84,841V977.18c-25-38.69-66-59.18-113.8-59.18-85.35,0-149.08,61.46-149.08,151.93s63.73,152.49,149.08,152.49c49.5,0,91-21.62,115.5-62v59.17h38.7V841a19.85,19.85,0,0,0-19.85-19.84h-.71A19.84,19.84,0,0,0,1763.84,841Zm-103.36,345.62c-63.72,0-111.52-46.66-111.52-116.64s47.8-116.65,111.52-116.65c63.16,0,111,46.66,111,116.65S1723.64,1186.57,1660.48,1186.57Z" transform="translate(-269.29 -819.57)" style="fill:#5f3cd7"/><path d="M2109.72,1034.08v185.49H2071v-46.66c-18.2,30.73-53.48,49.51-103,49.51-67.72,0-109.25-35.28-109.25-87.06,0-46.09,29.59-84.78,115.5-84.78h95v-18.21c0-51.21-29-79.09-84.78-79.09-32.36,0-63.13,9.55-86.65,25.33a15.39,15.39,0,0,1-21.8-4.74h0a19.85,19.85,0,0,1,6.31-27c28.9-18.47,66.51-28.88,106.12-28.88C2065.9,918,2109.72,956.7,2109.72,1034.08Zm-40.4,95.59v-48.93h-93.89c-58,0-76.81,22.76-76.81,53.48,0,34.71,27.88,56.33,75.67,56.33C2019.81,1190.55,2053.39,1168.93,2069.32,1129.67Z" transform="translate(-269.29 -819.57)" style="fill:#5f3cd7"/><path d="M2316.13,918v39.26c-3.42,0-6.83-.56-9.68-.56-62.59,0-100.71,39.83-100.71,110.38v152.49h-40.4V939.13a18.85,18.85,0,0,1,18.85-18.85h0A19.84,19.84,0,0,1,2204,940.12v38.77C2222.81,939.06,2260.93,918,2316.13,918Z" transform="translate(-269.29 -819.57)" style="fill:#5f3cd7"/><path d="M2344.25,1191.15a27.79,27.79,0,0,1,28.08-28.09c15.37,0,28.61,12,28.61,28.09a28.67,28.67,0,0,1-28.61,28.6A28.23,28.23,0,0,1,2344.25,1191.15Z" transform="translate(-269.29 -819.57)" style="fill:#5f3cd7"/><path d="M2475,1165l8-7.4c25,29.59,75.68,52.92,131.44,52.92,86.49,0,125.18-39.83,125.18-88.77,0-133.71-253.2-55.19-253.2-202,0-52.35,39.83-100.14,133.14-100.14,42.68,0,86.49,14.22,115.51,36.41l-6.26,9.11c-31.86-23.33-72.83-34.71-108.68-34.71-83.64,0-122.33,40.4-122.33,89.9,0,134.28,253.2,57.47,253.2,201.42,0,52.92-41.54,99.58-136,99.58C2556.93,1221.28,2501.74,1198,2475,1165Z" transform="translate(-269.29 -819.57)" style="fill:#2d3748"/><path d="M2990.61,1200.23c-13.66,14.22-36.42,21-57.47,21-46.66,0-71.13-29-71.13-72.26V936.21h-56.9V925.4H2862V861.1h11.38v64.3H2973v10.81h-99.58v210c0,41.54,20.49,64.3,60.32,64.3,18.78,0,36.41-6.26,48.93-18.21Z" transform="translate(-269.29 -819.57)" style="fill:#2d3748"/><path d="M3045.59,1072.2c0-87.05,60.89-148.51,142.82-148.51s142.82,61.46,142.82,148.51-60.88,149.08-142.82,149.08S3045.59,1159.26,3045.59,1072.2Zm274.24,0c0-81.36-56.34-137.7-131.44-137.7S3057,990.84,3057,1072.2s56.33,138.27,131.44,138.27S3319.83,1153.57,3319.83,1072.2Z" transform="translate(-269.29 -819.57)" style="fill:#2d3748"/><path d="M3515.48,923.69v11.38h-3.42c-70.55,0-112.09,48.37-112.09,126.32v158.18h-11.38V925.4H3400v76.25C3416.47,952.14,3456.3,923.69,3515.48,923.69Z" transform="translate(-269.29 -819.57)" style="fill:#2d3748"/><path d="M3789.57,1072.2H3527.83c0,81.37,58,138.27,136,138.27,39.26,0,76.82-14.8,100.14-45.52l8,8c-26.17,31.87-66,48.37-108.11,48.37-84.78,0-146.8-62-146.8-149.08s58-148.51,136-148.51c77.38,0,136.56,60.32,136.56,145.67Zm-261.77-10.81h250.93c-4-72.83-56.33-126.89-125.75-126.89S3531.79,988.56,3527.8,1061.39Z" transform="translate(-269.29 -819.57)" style="fill:#2d3748"/></g></svg>